<?xml version="1.0" encoding="UTF-8" standalone="no"?>
<!DOCTYPE svg PUBLIC "-//W3C//DTD SVG 1.1//EN" "http://www.w3.org/Graphics/SVG/1.1/DTD/svg11.dtd">
<svg width="1000px" height="1000px" viewBox="180 1290 2100 550" version="1.1" xmlns="http://www.w3.org/2000/svg" xmlns:xlink="http://www.w3.org/1999/xlink" xml:space="preserve" xmlns:serif="http://www.serif.com/" style="fill-rule:evenodd;clip-rule:evenodd;stroke-linejoin:round;stroke-miterlimit:2;">
    <g id="Base-Layer" serif:id="Base Layer">
        <path d="M468.592,1287.18C468.351,1279.44 468.23,1271.69 468.23,1263.91C468.23,852.248 806.416,518.031 1222.97,518.031C1639.52,518.031 1977.7,852.248 1977.7,1263.91C1977.7,1270.37 1977.62,1276.82 1977.45,1283.26C2022.81,1308.68 2059.35,1349.69 2087.22,1377.32C2109.96,1399.88 2128.63,1426.99 2146.01,1453.33C2172.03,1492.74 2158.27,1539.36 2082.91,1566.62C2057.58,1584.92 2025.31,1592.67 2006.91,1601.04C1995.42,1606.26 1995.2,1601.36 1972.49,1616.81C1964.65,1622.14 1950.73,1636.92 1944.45,1649.95C1930.82,1678.23 1882.26,1703.95 1867.81,1710.03C1862.9,1712.09 1870.37,1720.48 1872.9,1725.16C1881.48,1740.99 1883.77,1792.83 1843.43,1796.07C1823.19,1797.69 1811.52,1814.36 1764.54,1783.2C1671.09,1878.36 1552.24,1948.99 1418.84,1984.38C1436.92,2031.96 1463.14,2096.74 1497.11,2177.88C1512.06,2195.05 1513.4,2218.16 1505.42,2236.05C1500.14,2247.91 1483.92,2275.97 1511.66,2300.45C1543.52,2332.59 1560.81,2360.35 1569.83,2385.63C1587.2,2446.46 1545.04,2505.12 1389.08,2474.97C1358.9,2469.14 1339.99,2439.47 1353.76,2389.79C1353.41,2371.37 1344.27,2362.45 1332.49,2339.46C1316.32,2307.19 1303.99,2268.51 1341.3,2225.66C1349.66,2216.06 1352.72,2198.65 1355.84,2190.34C1364.96,2165.98 1382.95,2148.46 1413.75,2147.83C1425.06,2147.6 1432.59,2135.27 1428.42,2123.99C1403.03,2078.12 1379.74,2038.89 1361.02,1997.32C1316.27,2005.51 1270.12,2009.79 1222.97,2009.79C1190.48,2009.79 1158.46,2007.76 1127.02,2003.81C1125.16,2112.2 1128.53,2224.78 1148.08,2350.32C1175.17,2362.08 1203.21,2377.65 1204.18,2408.49C1204.59,2421.8 1202.03,2428.5 1210.41,2447.96C1221.31,2482.28 1222.75,2526.02 1206.25,2543.53C1198.52,2551.74 1182.19,2556.37 1183.4,2568.46C1179.55,2586.08 1172.32,2600.32 1150.16,2599.62C1089.63,2605.23 1035.14,2603.57 986.032,2595.47C944.941,2570.71 945.906,2547.31 975.644,2524.83C975.507,2500.92 994.282,2477.9 1042.13,2456.27C1059.45,2447.9 1064.47,2436.18 1056.67,2420.95C1037.4,2380.42 1057.46,2358.87 1104.45,2350.32C1086.16,2236.28 1081.27,2116.49 1078.02,1996.02C923.781,1966.33 786.272,1890.14 681.072,1782.87L666.613,1793.2C684.15,1811.84 679.668,1830.49 655.14,1849.13C653.231,1879.25 640.8,1882.59 629.327,1893.58C622.52,1900.11 610.931,1897.64 586.305,1902.19C535.785,1911.51 468.364,1876.85 442.9,1841.96C434.057,1829.84 433.225,1813.34 425.691,1800.37C417.087,1785.55 404.125,1767.72 391.274,1753.05C374.173,1733.52 344.833,1709.76 323.086,1683.22C302.173,1657.69 273.803,1628.85 315.023,1570.33C349.328,1521.62 435.088,1353.59 468.592,1287.18ZM432.467,1632.24C427.526,1612.56 439.273,1601.49 445.929,1587.36C455.09,1567.92 487.435,1515.57 487.435,1515.57C497.794,1500.86 516.006,1507.17 520.529,1517.25C532.401,1543.71 556.239,1599.33 575.497,1620.46C581.953,1627.54 573.092,1648.82 563.718,1646.82C544.834,1642.8 512.956,1663.37 489.118,1677.11C469.799,1688.25 444.147,1660.4 432.467,1632.24ZM1945.55,1507.72C1920.21,1483.62 1971.93,1436.3 1998.27,1456.11C2005.25,1461.36 2004.87,1490.29 1993.79,1489.21C1983.22,1488.18 1954.42,1516.15 1945.55,1507.72Z"/>
    </g>
    <g id="Orange">
        <path d="M1094.74,2369.28C1102.86,2372.17 1128.58,2376.61 1150.39,2366.31C1165.79,2359.04 1187.74,2411.53 1187.74,2411.53C1180.04,2430.25 1182.02,2446.21 1192.66,2459.69C1209.49,2498.6 1201.39,2528.87 1182.83,2525.55C1175.47,2524.24 1164.24,2526.57 1165.14,2539.31C1161.86,2552.82 1154.89,2551.98 1138.51,2549.76C1035.26,2544.83 988.691,2547.51 994.097,2518.67C997.716,2499.37 1034.77,2468.65 1066.84,2458.71C1067.41,2449.24 1081.59,2447.32 1090.43,2445.93C1104.03,2443.8 1148.42,2445.93 1148.42,2445.93C1161.31,2443.33 1152.56,2434.29 1148.45,2433.09C1136.16,2429.48 1088.29,2436.85 1074.7,2428.63C1053.11,2415.56 1066.17,2359.1 1094.74,2369.28Z" style="fill:#E67E50;"/>
        <path d="M986.247,2549.02C971.316,2544.42 971.979,2572.81 985.766,2577.37C1013.49,2586.54 1127.6,2589.58 1156.38,2587.94C1173.48,2586.97 1175.91,2558.91 1157.82,2559.59C1124.61,2560.83 1012.75,2557.18 986.247,2549.02Z" style="fill:#E67E50;"/>
        <path d="M1380.4,2450.01C1371.22,2433.77 1386.94,2430.34 1393.85,2432.71C1419.49,2441.52 1515.99,2442.15 1539.95,2439.44C1556.27,2437.6 1539.06,2456.02 1532.75,2458.66C1497.5,2473.4 1389.06,2465.34 1380.4,2450.01Z" style="fill:#E67E50;"/>
        <path d="M1432.89,2184.43C1453.33,2185.59 1453.55,2157.53 1421.57,2155.83C1393.03,2154.57 1374.42,2173.17 1364.95,2210.06C1361.19,2221.69 1356.4,2231.79 1349.46,2238.66C1323.35,2277.25 1333.43,2304.17 1356.61,2326.86C1369.39,2340.49 1375.61,2361.5 1375.68,2389.43C1375.79,2432.83 1441.61,2427.83 1468.64,2428.16C1533.2,2428.96 1559.22,2421.21 1534.19,2354.87C1526.06,2333.31 1486.52,2291.1 1486.52,2291.1C1481.43,2279.13 1468.98,2279.42 1454.34,2283.36C1425.69,2286.93 1398.29,2288.83 1384.02,2273.22C1373.52,2268 1381.85,2258.18 1385.81,2260.11C1417.1,2275.41 1443.04,2277.77 1468.05,2257.73C1493.39,2232.59 1484.96,2203.7 1474.01,2206.48C1464.87,2208.8 1420.08,2231.58 1413.22,2217.8C1409.76,2210.84 1422.48,2183.84 1432.89,2184.43Z" style="fill:#E67E50;"/>
        <path d="M477.787,1315.59C488.917,1295.27 497.633,1292.33 501.283,1325.87C502.95,1373.85 503.259,1421.74 524.78,1471.25C530.701,1483.76 519.651,1496.09 511.563,1493.28C501.946,1489.93 476.23,1491.61 470.445,1505.03C451.296,1536.3 429.082,1584.82 419.047,1604.88C415.712,1611.55 417.689,1625.63 410.236,1625.44C391.196,1624.96 362.93,1634.04 348.558,1659.22C333.401,1669.03 321.934,1658.92 317.72,1648.94C313.069,1637.93 310.221,1611.74 320.657,1593.14L477.787,1315.59Z" style="fill:#E67E50;"/>
        <path d="M353.213,1670.38C359.196,1650.37 388.644,1635.98 409.303,1634.48C415.048,1634.06 418.899,1652.32 413.23,1651.31C407.247,1650.23 380.043,1661.15 370.04,1676.55C365.941,1682.86 351.057,1677.59 353.213,1670.38Z" style="fill:#E67E50;"/>
        <path d="M375.088,1691.69C374.281,1706.54 385.242,1718.23 391.915,1707.4C399.384,1695.28 422.881,1681.31 437.909,1675.99C444.845,1673.53 435.165,1656.67 427.813,1656.36C412.43,1655.7 375.74,1679.71 375.088,1691.69Z" style="fill:#E67E50;"/>
        <path d="M1964.62,1440.97C1959.4,1436.85 1961.1,1411.78 1965.74,1398.34C1973.03,1377.21 1969.85,1328.32 1974.72,1314.21C1976.91,1307.84 1983.82,1304.59 1994.91,1313.65C2027.68,1340.41 2141.21,1437.14 2139.06,1507.72C2138.6,1522.65 2114.59,1532.24 2106.53,1538.57C2094.52,1547.99 2077.72,1540.06 2078.48,1518.37C2079.69,1484.03 2029.59,1475.09 2016.78,1462.85C2011.12,1457.43 2010.33,1448.54 2001.64,1444.9C1992.94,1441.25 1969.02,1444.45 1964.62,1440.97Z" style="fill:#E67E50;"/>
        <path d="M2010.05,1495.38C2006.36,1489.72 2024.76,1478.43 2030.81,1483.6C2041.18,1492.48 2071.47,1527.07 2072.31,1548.66C2072.7,1558.65 2050.74,1571.99 2042.58,1552.59C2037.29,1540 2014.39,1502.03 2010.05,1495.38Z" style="fill:#E67E50;"/>
        <path d="M1973.03,1520.62C1971.7,1512.58 1986.01,1501.32 1992.66,1506.03C2002.29,1512.86 2028.84,1549.69 2030.81,1561.56C2032.5,1571.81 2007.83,1587.08 2004.44,1577.27C1997.25,1556.42 1975,1532.49 1973.03,1520.62Z" style="fill:#E67E50;"/>
        <path d="M1688.01,1645.15C1684.5,1663.24 1694.57,1669.64 1703.38,1690.19C1712.77,1696.48 1718.58,1703.48 1716.17,1712.13C1715.99,1731.72 1723.19,1746.27 1745.43,1750.52C1751.53,1759.91 1748.79,1767.53 1737.2,1773.38C1558.48,1926.39 1354.29,1987.89 1176.83,1978.14C999.374,1968.39 812.088,1874.19 681.727,1725.23C684.441,1703.06 682.5,1684.61 677.945,1668.25C659.348,1644.27 638.1,1630.45 610.779,1639.91C518.007,1485.46 482.137,1232.27 544.828,1072.49C652.935,796.961 897.671,581.691 1212.46,574.394C1345.28,569.437 1467.63,597.34 1580.62,654.702C1874.77,799.269 2021.04,1154.01 1929.95,1471.73C1926.92,1484.16 1928.62,1491.87 1909.54,1520.34C1899.47,1530.39 1881.13,1527.23 1858.73,1517.57C1835.64,1510.79 1819.93,1515.1 1811.62,1530.5C1798.94,1548.84 1783.95,1560.2 1766.35,1563.76C1713.47,1576.86 1674.36,1609.87 1688.01,1645.15ZM1277.29,1755.18C1277.29,1741.5 1266.18,1730.38 1252.5,1730.38C1238.81,1730.38 1227.7,1741.5 1227.7,1755.18L1227.7,1906.94C1227.7,1920.62 1238.81,1931.73 1252.5,1931.73C1266.18,1931.73 1277.29,1920.62 1277.29,1906.94L1277.29,1755.18ZM1089.89,1816.59C1091.07,1812.38 1088.61,1808 1084.39,1806.83C1080.18,1805.65 1075.8,1808.11 1074.62,1812.32L1051.97,1893.36C1050.79,1897.57 1053.25,1901.95 1057.46,1903.13C1061.68,1904.31 1066.06,1901.84 1067.23,1897.63L1089.89,1816.59ZM1414.88,1807.07C1413.7,1802.86 1416.16,1798.48 1420.38,1797.3C1424.59,1796.12 1428.97,1798.59 1430.14,1802.8L1452.8,1883.84C1453.98,1888.05 1451.52,1892.42 1447.3,1893.6C1443.09,1894.78 1438.71,1892.32 1437.54,1888.1L1414.88,1807.07ZM868.683,1694.95C871.88,1691.96 872.052,1686.94 869.066,1683.75C866.08,1680.55 861.06,1680.38 857.862,1683.36L796.366,1740.79C793.168,1743.78 792.997,1748.8 795.983,1752C798.969,1755.19 803.989,1755.37 807.186,1752.38L868.683,1694.95ZM1635.93,1670.91C1632.91,1667.75 1633.01,1662.73 1636.17,1659.7C1639.33,1656.67 1644.35,1656.78 1647.38,1659.94L1705.62,1720.66C1708.65,1723.82 1708.54,1728.85 1705.38,1731.87C1702.23,1734.9 1697.21,1734.8 1694.18,1731.64L1635.93,1670.91ZM1090.4,1569.62C1074.91,1539.98 1118.44,1517.65 1144.06,1512.3C1192.37,1502.23 1358.54,1490.88 1411.12,1498.89C1435.41,1502.59 1457.2,1525.17 1431.85,1569.62C1397.76,1618.09 1330.23,1670.84 1273.32,1670.84C1216.41,1670.84 1151.37,1652.04 1090.4,1569.62ZM717.9,1473.02C722.135,1471.92 724.68,1467.59 723.581,1463.36C722.482,1459.12 718.152,1456.58 713.917,1457.68L632.473,1478.82C628.238,1479.92 625.693,1484.25 626.792,1488.48C627.891,1492.72 632.221,1495.26 636.456,1494.16L717.9,1473.02ZM1772.24,1442.65C1767.97,1441.68 1765.29,1437.43 1766.26,1433.16C1767.23,1428.89 1771.48,1426.22 1775.75,1427.19L1857.8,1445.84C1862.07,1446.81 1864.74,1451.06 1863.77,1455.33C1862.8,1459.6 1858.55,1462.27 1854.29,1461.3L1772.24,1442.65ZM896.802,1360.51C857.342,1340.86 825.639,1294 819.772,1249.49C812.417,1193.7 832.062,1066.88 894.048,1016.26C901.72,1011.61 893.36,965.54 899.556,959.803C905.753,954.065 922.943,1005.18 931.227,981.834C934.516,986.963 948.168,923.874 956.013,922.624C963.858,921.374 966.365,977.548 978.299,974.335C990.233,971.122 1021.69,903.473 1027.62,903.346C1033.54,903.219 1014.3,967.456 1018.66,977.784C1023.02,988.111 1045.64,988.021 1053.78,965.311C1062.96,949.342 1078.57,931.345 1081.32,939.148C1084.07,946.951 1054.76,993.057 1070.3,1012.13C1104.29,1053.84 1150.38,1207.19 1133.64,1301.3C1127.72,1334.63 1089.38,1359.18 1056.53,1367.39C1017.06,1377.26 936.263,1380.16 896.802,1360.51ZM1419.32,1353.64C1381.32,1349.3 1353.86,1287.17 1354.8,1245.08C1356.16,1183.98 1379.05,1024.02 1428.54,990.074C1408.63,962.261 1399.69,937.331 1404.98,933.747C1410.27,930.163 1441.78,976.648 1460.28,968.568C1470.62,964.058 1455.67,899.951 1462.33,897.902C1468.99,895.854 1475.63,940.807 1500.23,956.278C1515.18,959.599 1525.64,948.63 1526.85,938.868C1528.26,927.501 1532.32,904.73 1537.09,910.192C1541.87,915.654 1540.51,963.986 1555.53,971.64C1570.87,979.46 1585.11,939.121 1589.62,941.414C1596.75,945.038 1585.87,983.143 1595.47,998.267C1648.71,1045.1 1670.91,1193.37 1665.11,1252.25C1660.44,1299.63 1603.42,1341.74 1559.62,1348.52C1516.61,1355.18 1462.67,1358.59 1419.32,1353.64ZM1246.05,1247.37C1269.86,1247.37 1289.19,1265.82 1289.19,1288.53C1289.19,1311.25 1269.86,1329.69 1246.05,1329.69C1222.24,1329.69 1202.9,1311.25 1202.9,1288.53C1202.9,1265.82 1222.24,1247.37 1246.05,1247.37ZM616.053,1276.33C603.103,1276.33 592.59,1286.84 592.59,1299.79C592.59,1312.74 603.103,1323.26 616.053,1323.26L782.376,1323.26C795.326,1323.26 805.839,1312.74 805.839,1299.79C805.839,1286.84 795.326,1276.33 782.376,1276.33L616.053,1276.33ZM1707.32,1249.86C1694.37,1250.11 1684.06,1260.82 1684.31,1273.77C1684.56,1286.72 1695.27,1297.03 1708.22,1296.78L1874.51,1293.58C1887.46,1293.33 1897.77,1282.62 1897.52,1269.67C1897.27,1256.72 1886.56,1246.41 1873.61,1246.66L1707.32,1249.86ZM706.881,1137.45C711.123,1138.53 715.437,1135.95 716.509,1131.71C717.581,1127.47 715.008,1123.16 710.766,1122.09L629.188,1101.47C624.946,1100.39 620.632,1102.97 619.56,1107.21C618.488,1111.45 621.061,1115.77 625.303,1116.84L706.881,1137.45ZM1848.7,1084.99C1852.82,1083.51 1854.97,1078.97 1853.5,1074.85C1852.03,1070.73 1847.49,1068.58 1843.37,1070.06L1764.14,1098.4C1760.02,1099.87 1757.87,1104.41 1759.35,1108.53C1760.82,1112.65 1765.36,1114.8 1769.48,1113.33L1848.7,1084.99ZM777.389,851.122C774.287,848.037 774.274,843.014 777.359,839.912C780.444,836.81 785.467,836.797 788.569,839.882L848.225,899.223C851.327,902.308 851.34,907.331 848.255,910.433C845.17,913.535 840.147,913.548 837.045,910.463L777.389,851.122ZM1690.22,822.182C1693,818.8 1692.5,813.801 1689.12,811.026C1685.74,808.251 1680.74,808.744 1677.97,812.127L1624.59,877.178C1621.82,880.56 1622.31,885.559 1625.69,888.334C1629.08,891.108 1634.08,890.615 1636.85,887.233L1690.22,822.182ZM1256.46,656.252C1256.46,642.567 1245.35,631.457 1231.67,631.457C1217.98,631.457 1206.87,642.567 1206.87,656.252L1206.87,819.911C1206.87,833.596 1217.98,844.706 1231.67,844.706C1245.35,844.706 1256.46,833.596 1256.46,819.911L1256.46,656.252ZM1030.92,682.489C1029.6,678.319 1031.91,673.86 1036.09,672.537C1040.26,671.214 1044.71,673.526 1046.04,677.696L1071.48,757.903C1072.8,762.073 1070.49,766.532 1066.32,767.855C1062.15,769.177 1057.69,766.866 1056.36,762.696L1030.92,682.489ZM1429.23,667.581C1430.23,663.323 1427.59,659.05 1423.34,658.044C1419.08,657.038 1414.8,659.678 1413.8,663.936L1394.45,745.826C1393.45,750.083 1396.09,754.357 1400.35,755.362C1404.6,756.368 1408.88,753.728 1409.88,749.471L1429.23,667.581Z" style="fill:#E67E50;"/>
        <path d="M492.406,1168.66C511.132,1002.08 734.768,507.208 1258.16,536.047C1264.03,536.37 1262.44,553.738 1256.57,553.611C682.391,541.192 497.858,1094.85 507.694,1195.5C508.883,1207.66 490.157,1188.66 492.406,1168.66Z" style="fill:#E67E50;"/>
    </g>
    <g id="White">
        <path d="M434.443,1792.52C419.202,1750.65 444.032,1727.92 466.344,1707.45C492.219,1683.7 559.417,1649.97 589.694,1650.03C607.244,1650.05 635.152,1658.09 643.926,1669.16C650.619,1677.62 661.333,1675.9 667.32,1691.5C668.559,1702.41 658.027,1705.62 648.001,1710.51C639.035,1714.88 618.107,1712.96 603.518,1711.7C592.13,1710.71 563.393,1699.03 569.49,1715.95C571.679,1724.61 598.574,1725.98 613.088,1723.4C672.326,1712.84 689.189,1739.25 668.383,1767C660.469,1777.55 622.357,1789.68 648.179,1801.02C670.889,1800.85 667.879,1816.4 657.749,1828.67C652.194,1835.4 651.042,1843.83 633.911,1851.4C636.265,1868.44 628.216,1881.43 616.065,1885.91C599.904,1891.86 560.031,1898.21 536.947,1887.1C476.527,1864.88 445.448,1822.75 434.443,1792.52Z" style="fill:rgb(235,235,235);"/>
        <path d="M1707.75,1638.51C1700.59,1603.13 1739.99,1588.15 1761.88,1579.62C1779.56,1572.73 1803.29,1564.41 1815.42,1547.5C1830.39,1526.63 1850.09,1529.48 1880.26,1535C1927.14,1548.17 1949.27,1594.59 1942.72,1624.24C1936.18,1653.88 1884.82,1692.22 1841,1712.87C1829.89,1718.81 1825.54,1731.52 1825.53,1748.56C1831.08,1758.89 1836.63,1759.85 1842.19,1747.97C1848.53,1736.32 1855.36,1732.94 1861.22,1737.26C1874.67,1747.16 1852.63,1792.7 1820.77,1790.8C1807.2,1789.99 1774.99,1770.77 1779.73,1740.83C1779.57,1722.42 1771.58,1724.88 1761.88,1731.91C1745,1739.12 1737.71,1731.44 1735.11,1716.44C1737.1,1699.85 1730.94,1690.39 1720.24,1684.91C1703.47,1674.49 1700.72,1658.46 1707.75,1638.51Z" style="fill:rgb(235,235,235);"/>
        <path d="M841.021,1252.19C837.986,1204.94 847.708,998.26 985.923,991.68C1047.84,988.732 1109.31,1102.8 1111.82,1187.26C1113.43,1241.44 1122.91,1329.92 1065.9,1343.24C1024.79,1352.85 935.907,1345.09 905.158,1334.53C869.2,1322.19 843.459,1290.13 841.021,1252.19ZM981.964,1310.78C929.592,1307.79 893.017,1201.11 899.616,1130.25C904.212,1080.88 936.621,1007.39 978.797,1004.35C997.052,1008.8 1008.86,1018.09 1001.76,1041.56C1001.76,1041.56 989.115,1077.81 986.715,1085.91C982.449,1100.3 993.524,1103.24 1002.55,1092.24C1008.62,1084.84 1026.98,1045.09 1036.6,1057.4C1074.34,1105.7 1065.36,1315.54 981.964,1310.78Z" style="fill:white;"/>
        <g transform="matrix(1,0,0,1,4.65681,0)">
            <path d="M1133.26,1528.83C1144.06,1511.24 1392.26,1512.02 1395.91,1520.45C1402,1534.52 1123.28,1545.09 1133.26,1528.83Z" style="fill:rgb(235,235,235);"/>
        </g>
        <path d="M1380.62,1251.39C1373.5,1016.71 1461.8,976.804 1506.52,975.052C1577.25,972.281 1657.09,1103.72 1648.25,1230.02C1645.18,1273.8 1598.54,1321.51 1558.78,1326.62C1520.77,1331.5 1455.1,1332.36 1420.21,1330.58C1388.88,1328.97 1381.74,1288.23 1380.62,1251.39ZM1411.5,1165.09C1417.57,1001.19 1461.2,987.506 1509.68,993.264C1523.04,1001.08 1520.71,1013.32 1519.98,1024.14C1519.18,1035.76 1507.8,1056.38 1504.93,1065.32C1500.31,1079.73 1506.17,1090.62 1516.81,1080.36C1522.64,1074.75 1538.85,1030.4 1549.27,1043.15C1585.96,1088.02 1576.99,1294.42 1485.93,1300.49C1455.33,1302.53 1420.68,1233.94 1411.5,1165.09Z" style="fill:white;"/>
        <path d="M1352.13,1630.35C1338.47,1626.31 1199.55,1627.86 1185.42,1632.21C1171.3,1636.56 1221.09,1655.34 1267.38,1656.42C1322.8,1657.72 1365.79,1634.38 1352.13,1630.35Z" style="fill:white;"/>
    </g>
    <g id="Red">
        <path d="M1222.67,1615.44C1213.13,1611.65 1225.74,1601.84 1282.28,1600.54C1313.14,1595.88 1342.9,1595 1343.75,1605.2C1345.06,1620.8 1237.21,1621.22 1222.67,1615.44Z" style="fill:rgb(229,16,16);"/>
    </g>
</svg>
